<svg width="15" height="15" viewBox="0 0 15 15" fill="none" xmlns="http://www.w3.org/2000/svg">
    <path d="M0 2V5C0.356565 5.35656 1.1899 5.90384 2.5 6.33582C3.63939 6.71151 5.13939 7 7 7V2L5 0H2L0 2Z" fill="#BEF264"/>
    <path d="M15 13V10C14.6434 9.64344 13.8101 9.09616 12.5 8.66418C11.3606 8.28849 9.86061 8 8 8V13L10 15H13L15 13Z" fill="#BEF264"/>
    <path d="M0 13V10C0.356565 9.64344 1.1899 9.09616 2.5 8.66418C3.63939 8.28849 5.13939 8 7 8V13L5 15H2L0 13Z" fill="#059669"/>
    <path d="M15 2V5C14.6434 5.35656 13.8101 5.90384 12.5 6.33582C11.3606 6.71151 9.86061 7 8 7V2L10 0H13L15 2Z" fill="#059669"/>
</svg>
